<svg width="306" height="106" viewBox="0 0 306 106" fill="none" xmlns="http://www.w3.org/2000/svg">
<rect x="3" y="3" width="300" height="100" fill="white"/>
<path d="M305 52H71V103H305V52Z" fill="#DD7A3E"/>
<path d="M303 3H3V103H303V3Z" stroke="black" stroke-width="5"/>
<path d="M69.2028 3.48L69.9921 103" stroke="black" stroke-width="6"/>
<path d="M88.2203 46.48C85.6923 46.48 83.7563 45.76 82.4123 44.32C81.1003 42.88 80.4443 40.848 80.4443 38.224V20.176C80.4443 17.552 81.1003 15.52 82.4123 14.08C83.7563 12.64 85.6923 11.92 88.2203 11.92C90.7483 11.92 92.6683 12.64 93.9803 14.08C95.3243 15.52 95.9963 17.552 95.9963 20.176V23.728H91.0043V19.84C91.0043 17.76 90.1243 16.72 88.3643 16.72C86.6043 16.72 85.7243 17.76 85.7243 19.84V38.608C85.7243 40.656 86.6043 41.68 88.3643 41.68C90.1243 41.68 91.0043 40.656 91.0043 38.608V33.472H95.9963V38.224C95.9963 40.848 95.3243 42.88 93.9803 44.32C92.6683 45.76 90.7483 46.48 88.2203 46.48ZM106.881 46.48C104.289 46.48 102.305 45.744 100.929 44.272C99.553 42.8 98.865 40.72 98.865 38.032V20.368C98.865 17.68 99.553 15.6 100.929 14.128C102.305 12.656 104.289 11.92 106.881 11.92C109.473 11.92 111.457 12.656 112.833 14.128C114.209 15.6 114.897 17.68 114.897 20.368V38.032C114.897 40.72 114.209 42.8 112.833 44.272C111.457 45.744 109.473 46.48 106.881 46.48ZM106.881 41.68C108.705 41.68 109.617 40.576 109.617 38.368V20.032C109.617 17.824 108.705 16.72 106.881 16.72C105.057 16.72 104.145 17.824 104.145 20.032V38.368C104.145 40.576 105.057 41.68 106.881 41.68ZM118.468 12.4H125.092L130.228 32.512H130.324V12.4H135.028V46H129.604L123.268 21.472H123.172V46H118.468V12.4ZM143.08 17.2H137.56V12.4H153.88V17.2H148.36V46H143.08V17.2ZM156.437 12.4H164.261C166.981 12.4 168.965 13.04 170.213 14.32C171.461 15.568 172.085 17.504 172.085 20.128V22.192C172.085 25.68 170.933 27.888 168.629 28.816V28.912C169.909 29.296 170.805 30.08 171.317 31.264C171.861 32.448 172.133 34.032 172.133 36.016V41.92C172.133 42.88 172.165 43.664 172.229 44.272C172.293 44.848 172.453 45.424 172.709 46H167.333C167.141 45.456 167.013 44.944 166.949 44.464C166.885 43.984 166.853 43.12 166.853 41.872V35.728C166.853 34.192 166.597 33.12 166.085 32.512C165.605 31.904 164.757 31.6 163.541 31.6H161.717V46H156.437V12.4ZM163.637 26.8C164.693 26.8 165.477 26.528 165.989 25.984C166.533 25.44 166.805 24.528 166.805 23.248V20.656C166.805 19.44 166.581 18.56 166.133 18.016C165.717 17.472 165.045 17.2 164.117 17.2H161.717V26.8H163.637ZM183.428 46.48C180.836 46.48 178.852 45.744 177.476 44.272C176.1 42.8 175.412 40.72 175.412 38.032V20.368C175.412 17.68 176.1 15.6 177.476 14.128C178.852 12.656 180.836 11.92 183.428 11.92C186.02 11.92 188.004 12.656 189.38 14.128C190.756 15.6 191.444 17.68 191.444 20.368V38.032C191.444 40.72 190.756 42.8 189.38 44.272C188.004 45.744 186.02 46.48 183.428 46.48ZM183.428 41.68C185.252 41.68 186.164 40.576 186.164 38.368V20.032C186.164 17.824 185.252 16.72 183.428 16.72C181.604 16.72 180.692 17.824 180.692 20.032V38.368C180.692 40.576 181.604 41.68 183.428 41.68ZM195.015 12.4H200.295V41.2H208.983V46H195.015V12.4ZM211.515 12.4H216.795V41.2H225.483V46H211.515V12.4ZM228.015 12.4H242.415V17.2H233.295V26.08H240.543V30.88H233.295V41.2H242.415V46H228.015V12.4ZM245.452 12.4H253.516C256.14 12.4 258.108 13.104 259.42 14.512C260.732 15.92 261.388 17.984 261.388 20.704V37.696C261.388 40.416 260.732 42.48 259.42 43.888C258.108 45.296 256.14 46 253.516 46H245.452V12.4ZM253.42 41.2C254.284 41.2 254.94 40.944 255.388 40.432C255.868 39.92 256.108 39.088 256.108 37.936V20.464C256.108 19.312 255.868 18.48 255.388 17.968C254.94 17.456 254.284 17.2 253.42 17.2H250.732V41.2H253.42Z" fill="#131313"/>
<path d="M80.7803 59.4H94.7483V64.2H86.0603V73.56H92.8763V78.36H86.0603V93H80.7803V59.4ZM97.2803 59.4H105.104C107.824 59.4 109.808 60.04 111.056 61.32C112.304 62.568 112.928 64.504 112.928 67.128V69.192C112.928 72.68 111.776 74.888 109.472 75.816V75.912C110.752 76.296 111.648 77.08 112.16 78.264C112.704 79.448 112.976 81.032 112.976 83.016V88.92C112.976 89.88 113.008 90.664 113.072 91.272C113.136 91.848 113.296 92.424 113.552 93H108.176C107.984 92.456 107.856 91.944 107.792 91.464C107.728 90.984 107.696 90.12 107.696 88.872V82.728C107.696 81.192 107.44 80.12 106.928 79.512C106.448 78.904 105.6 78.6 104.384 78.6H102.56V93H97.2803V59.4ZM104.48 73.8C105.536 73.8 106.32 73.528 106.832 72.984C107.376 72.44 107.648 71.528 107.648 70.248V67.656C107.648 66.44 107.424 65.56 106.976 65.016C106.56 64.472 105.888 64.2 104.96 64.2H102.56V73.8H104.48ZM116.64 59.4H131.04V64.2H121.92V73.08H129.168V77.88H121.92V88.2H131.04V93H116.64V59.4ZM134.077 59.4H148.477V64.2H139.357V73.08H146.605V77.88H139.357V88.2H148.477V93H134.077V59.4ZM151.515 59.4H159.579C162.203 59.4 164.171 60.104 165.483 61.512C166.795 62.92 167.451 64.984 167.451 67.704V84.696C167.451 87.416 166.795 89.48 165.483 90.888C164.171 92.296 162.203 93 159.579 93H151.515V59.4ZM159.483 88.2C160.347 88.2 161.003 87.944 161.451 87.432C161.931 86.92 162.171 86.088 162.171 84.936V67.464C162.171 66.312 161.931 65.48 161.451 64.968C161.003 64.456 160.347 64.2 159.483 64.2H156.795V88.2H159.483ZM178.647 93.48C176.055 93.48 174.071 92.744 172.695 91.272C171.319 89.8 170.631 87.72 170.631 85.032V67.368C170.631 64.68 171.319 62.6 172.695 61.128C174.071 59.656 176.055 58.92 178.647 58.92C181.239 58.92 183.223 59.656 184.599 61.128C185.975 62.6 186.663 64.68 186.663 67.368V85.032C186.663 87.72 185.975 89.8 184.599 91.272C183.223 92.744 181.239 93.48 178.647 93.48ZM178.647 88.68C180.471 88.68 181.383 87.576 181.383 85.368V67.032C181.383 64.824 180.471 63.72 178.647 63.72C176.823 63.72 175.911 64.824 175.911 67.032V85.368C175.911 87.576 176.823 88.68 178.647 88.68ZM190.233 59.4H197.769L201.129 83.448H201.225L204.585 59.4H212.121V93H207.129V67.56H207.033L203.193 93H198.777L194.937 67.56H194.841V93H190.233V59.4Z" fill="white"/>
<path d="M7 41.7834C7 41.7834 14.0076 31.6373 19.3203 30.1323C24.6329 28.6273 25.8826 40.4598 25.8826 40.4598V60.2545V73.5601C25.8826 78.6233 29.0605 83.1416 33.8255 84.8535L35.813 85.5674C40.6571 87.3077 46.0698 85.6883 49.1622 81.5736L56.2885 72.0914C59.0823 68.374 65 70.3499 65 75V75L65 80L65 99H7V41.7834Z" fill="#131313"/>
<path d="M7 7H65V22.5V53.5V60V62.0863C65 65.1623 61.673 67.0872 59.0063 65.554L55.5649 63.5754C52.3412 61.722 48.2907 62.0573 45.3997 64.396V64.396C41.5496 67.5106 35.7601 64.9134 35.5926 59.964L34.2974 21.6954C34.1862 18.4115 31.7114 15.6921 28.4525 15.2727V15.2727C27.1212 15.1014 25.7885 15.5782 24.8681 16.555L13.3025 28.8288C11.5256 30.7145 8.46038 30.4735 7 28.3333V28.3333V7Z" fill="#131313"/>
</svg>
